<svg aria-hidden="true" style="width:0;height:0;position:absolute;overflow:hidden" xmlns="http://www.w3.org/2000/svg"><defs><symbol id="icon-business-comerce-delivery-shop-truck" viewBox="0 0 32 32"><path d="M25.113 12.906a.467.467 0 0 0-.381-.2h-2.906v-1.238a.472.472 0 0 0-.469-.469H10.826a.473.473 0 0 0-.469.469v7.575c0 .256.213.469.469.469h1.325c.244.85 1.031 1.481 1.956 1.481s1.713-.625 1.956-1.481h5.194c.244.85 1.031 1.481 1.956 1.481s1.712-.625 1.956-1.481h.969a.472.472 0 0 0 .469-.469v-3.856c0-.1-.031-.194-.087-.269l-1.406-2.012zm.562 2.419h-2.1V13.65h.919l1.181 1.675zm-14.381-3.381h9.594v6.638h-4.781c-.181-.944-1.006-1.656-2-1.656s-1.825.712-2 1.656h-.813v-6.637zm2.812 8.112c-.606 0-1.1-.494-1.1-1.1s.494-1.1 1.1-1.1 1.1.494 1.1 1.1-.494 1.1-1.1 1.1zm9.113 0c-.606 0-1.1-.494-1.1-1.1s.494-1.1 1.1-1.1 1.1.494 1.1 1.1-.494 1.1-1.1 1.1zm2-1.475a2.038 2.038 0 0 0-2-1.656c-.538 0-1.031.212-1.394.556V13.65h.806v2.144c0 .256.212.469.469.469h2.581v2.319h-.462zM5.85 11.944h3.344c.256 0 .469-.213.469-.469s-.213-.469-.469-.469H5.85c-.256 0-.469.213-.469.469s.213.469.469.469zM9.194 12.713H6.619c-.256 0-.469.213-.469.469s.213.469.469.469h2.575a.468.468 0 1 0 0-.938zM9.194 14.419H7.569c-.256 0-.469.213-.469.469s.213.469.469.469h1.625a.468.468 0 1 0 0-.938zM9.194 16.125h-.563c-.256 0-.469.212-.469.469s.213.469.469.469h.563c.256 0 .469-.212.469-.469s-.206-.469-.469-.469z"/></symbol><symbol id="icon-box-business-comerce-delivery-shop" viewBox="0 0 32 32"><path d="M25.681 11.662c0-.006 0-.012-.006-.012 0-.012-.006-.019-.006-.031 0-.006-.006-.019-.006-.025s-.006-.012-.006-.019a.316.316 0 0 0-.044-.081L21.55 5.525a.46.46 0 0 0-.387-.206H10.844a.46.46 0 0 0-.387.206l-4.063 5.969c-.019.025-.031.056-.044.081 0 .006-.006.012-.006.019-.006.006-.006.019-.006.025 0 .012-.006.019-.006.031 0 .006 0 .012-.006.012-.006.031-.013.063-.013.094v14.456c0 .256.213.469.469.469h18.444a.472.472 0 0 0 .469-.469V11.756c-.006-.031-.006-.063-.012-.094zm-1.35-.375h-6.056l-.569-5.031h3.2l3.425 5.031zm-9.725.938h2.781v3.438l-1.119-.787c-.081-.056-.175-.088-.269-.088s-.188.031-.269.088l-1.119.787v-3.438zm2.156-5.969.569 5.031h-2.669l.569-5.031h1.531zm-5.668 0h3.2l-.569 5.031H7.669l3.425-5.031zM24.75 25.744H7.25V12.225h6.425v4.338c0 .175.1.337.25.419a.473.473 0 0 0 .488-.031L16 15.832l1.587 1.119a.476.476 0 0 0 .488.037.47.47 0 0 0 .25-.419v-4.338h6.425v13.513z"/><path d="M12.563 20.65H9.238c-.256 0-.469.212-.469.469s.213.469.469.469h3.325c.256 0 .469-.212.469-.469s-.213-.469-.469-.469zM10.9 22.619H9.238c-.256 0-.469.212-.469.469s.213.469.469.469H10.9c.256 0 .469-.212.469-.469s-.213-.469-.469-.469z"/></symbol><symbol id="icon-business-comerce-delivery-return-shop" viewBox="0 0 32 32"><path d="M16.006 26.512a10.44 10.44 0 0 0 7.431-3.081 10.49 10.49 0 0 0 3.063-6.9c.012-.256-.188-.481-.444-.494s-.481.188-.494.444a9.55 9.55 0 0 1-2.794 6.281c-1.806 1.806-4.213 2.806-6.769 2.806s-4.963-.994-6.769-2.806c-3.731-3.731-3.731-9.806 0-13.537a9.567 9.567 0 0 1 11.894-1.319L20.068 9.2l3.031-.306-.306-3.031-1.069 1.313c-4.144-2.7-9.637-2.131-13.156 1.387-4.1 4.1-4.1 10.763 0 14.863a10.443 10.443 0 0 0 7.438 3.087z"/><path d="M20.962 13.838c0-.006 0-.012-.006-.012 0-.012-.006-.019-.006-.031 0-.006-.006-.019-.006-.025s-.006-.012-.006-.019a.316.316 0 0 0-.044-.081l-1.988-2.919a.46.46 0 0 0-.387-.206h-5.037a.46.46 0 0 0-.387.206l-1.988 2.912c-.019.025-.031.056-.044.081 0 .006-.006.012-.006.019-.006.006-.006.019-.006.025 0 .012-.006.019-.006.031 0 .006 0 .012-.006.012a.504.504 0 0 0-.012.094v7.056c0 .256.213.469.469.469h9.006a.472.472 0 0 0 .469-.469v-7.05c0-.037 0-.069-.006-.094zm-7.231-2.357h4.537l1.344 1.975h-7.231l1.35-1.975zm6.3 9.038h-8.063V14.4h8.069v6.119z"/></symbol><symbol id="icon-telegram-app" viewBox="0 0 32 32"><path d="M16 2.667C8.636 2.667 2.667 8.637 2.667 16S8.637 29.333 16 29.333c7.364 0 13.333-5.97 13.333-13.333S23.363 2.667 16 2.667z"/><path fill="#fff" style="fill:var(--color2,#fff)" d="m22.633 10-2.497 12.751s-.107.583-.83.583c-.384 0-.582-.183-.582-.183l-5.409-4.489-2.647-1.334-3.397-.903s-.605-.175-.605-.675c0-.417.622-.615.622-.615L21.499 9.49c-.001-.001.434-.157.751-.156.195 0 .417.083.417.333 0 .167-.033.333-.033.333z"/><path fill="#b0bec5" style="fill:var(--color3,#b0bec5)" d="m15.333 20.337-2.284 2.249s-.099.077-.232.08a.33.33 0 0 1-.146-.029l.643-3.977 2.019 1.676z"/><path fill="#cfd8dc" style="fill:var(--color4,#cfd8dc)" d="M19.931 12.131a.333.333 0 0 0-.467-.062l-8.797 5.265s1.404 3.928 1.618 4.608.387.697.387.697l.643-3.977 6.555-6.064a.333.333 0 0 0 .063-.467z"/></symbol><symbol id="icon-viber" viewBox="0 0 32 32"><path d="M0 0h32v32H0V0z"/><path fill="none" stroke="#fff" style="stroke:var(--color2,#fff)" stroke-linecap="round" stroke-width=".625" d="m16.813 11.625.064-.001c1.036 0 1.875.839 1.875 1.875l-.001.067v-.003m-2.376-3.625h.004a4 4 0 0 1 3.995 4.197v-.009m-4.561-5.813.141-.002A6.063 6.063 0 0 1 22 14.833l.001-.02"/><path fill="#fff" style="fill:var(--color2,#fff)" d="M5.938 14.5c0 4.875.875 5.938 2.25 7.375.438.438 2 1.188 2.375 1.188v4.313c0 .25.25.438.5.188l3.313-3.938 1.625.063c9 0 10.063-3.5 10.063-9.188s-1.063-9.188-10.063-9.188-10.063 3.5-10.063 9.188zm-1.875 0c0-7.875 3.438-11.063 11.938-11.063S27.939 6.625 27.939 14.5s-3.438 11.063-11.938 11.063c-.625 0-1.125 0-2-.125l-2.375 2.688c-.438.5-1.75.688-1.75-.813v-2.625c-.375 0-1.25-.375-2.438-1.125-1.188-.813-3.375-2.75-3.375-9.063zM18 17.125q.625-.813 1.5-.25l2.25 1.688q.5.625-.438 1.75t-1.75.938q-3.313-.75-6.375-3.75t-3.813-6.5q0-1.25 1.563-2.125.813-.563 1.375.313l1.563 2.188q.375.75-.438 1.375c-2.438.938 3.188 7 4.563 4.375z"/></symbol><symbol id="icon-business-comerce-delivery-shop-trolley_121443" viewBox="0 0 32 32"><path d="M6.106 7.169H8.85l1.412 4.106.75 2.487v.006l.925 3.069c0 .006.006.012.006.019l.569 1.881h-.219c-1.131 0-2.05.919-2.05 2.05s.919 2.05 2.05 2.05h1.019a1.957 1.957 0 0 0-.281 1c0 1.069.869 1.938 1.938 1.938s1.938-.869 1.938-1.938c0-.369-.1-.706-.281-1h3.719a1.957 1.957 0 0 0-.281 1c0 1.069.869 1.938 1.938 1.938s1.938-.869 1.938-1.938c0-.369-.1-.706-.281-1h.844c.256 0 .469-.212.469-.469s-.212-.469-.469-.469H12.29c-.613 0-1.113-.5-1.113-1.113s.5-1.113 1.113-1.113h11.163a.477.477 0 0 0 .45-.331l.75-2.488v-.012l1.681-5.575c.044-.144.019-.294-.075-.412s-.225-.188-.375-.188h-14.85L9.622 6.555a.472.472 0 0 0-.444-.319H6.109c-.256 0-.469.213-.469.469s.213.463.469.463zm9.863 16.662c0 .55-.45 1-1 1s-1-.45-1-1 .45-1 1-1 1 .45 1 1zm7.037 0c0 .55-.45 1-1 1s-1-.45-1-1 .45-1 1-1 1 .45 1 1zm.857-7.6h-1.794l.413-2.137h2.025l-.644 2.137zm-2.75 0h-2.344v-2.137h2.762l-.419 2.137zm-2.344 2.5v-1.563h2.163l-.3 1.563h-1.863zm-2.8 0-.3-1.563h2.163v1.563h-1.863zm-2.95-1.562h1.694l.3 1.563h-1.525l-.469-1.563zm5.75-4.013v-1.563h3.244l-.3 1.563h-2.944zm-.938 0h-2.944l-.3-1.563h3.244v1.563zm0 .938v2.137h-2.344l-.412-2.137h2.756zm-3.3 2.137h-1.794l-.644-2.137h2.025l.412 2.137zm8.582 2.5h-1.525l.3-1.563h1.694l-.469 1.563zm1.681-5.575h-2.125l.3-1.563h2.294l-.469 1.563zm-11.163-1.562.3 1.563h-2.125l-.469-1.563h2.294z"/></symbol><symbol id="icon-basket-delete" viewBox="0 0 32 32"><path d="M12.25 11.45h1.5v12h-1.5zM15.25 11.45h1.5v12h-1.5zM18.25 11.45h1.5v12h-1.5zM6.25 6.95h19.5v1.5H6.25z"/><path d="M19.7 7.7h-1.4V6.2c0-.45-.35-.8-.8-.8h-3c-.45 0-.8.35-.8.8v1.5h-1.4V6.2c0-1.2 1-2.2 2.2-2.2h3c1.2 0 2.2 1 2.2 2.2v1.5z"/><path d="M20.5 27.95h-9c-1.2 0-2.25-1-2.35-2.2l-1.4-18 1.5-.1 1.4 18c.05.45.45.8.85.8h9c.45 0 .85-.4.85-.8l1.4-18 1.5.1-1.4 18c-.1 1.25-1.15 2.2-2.35 2.2z"/></symbol></defs></svg>