<svg aria-hidden="true" style="position: absolute; width: 0; height: 0; overflow: hidden;" version="1.1" xmlns="http://www.w3.org/2000/svg" xmlns:xlink="http://www.w3.org/1999/xlink">
<defs>
<symbol id="icon-business-comerce-delivery-shop-truck" viewBox="0 0 32 32">
<path d="M25.113 12.906c-0.087-0.125-0.231-0.2-0.381-0.2h-2.906v-1.238c0-0.256-0.212-0.469-0.469-0.469h-10.531c-0.256 0-0.469 0.213-0.469 0.469v7.575c0 0.256 0.213 0.469 0.469 0.469h1.325c0.244 0.85 1.031 1.481 1.956 1.481s1.713-0.625 1.956-1.481h5.194c0.244 0.85 1.031 1.481 1.956 1.481s1.712-0.625 1.956-1.481h0.969c0.256 0 0.469-0.212 0.469-0.469v-3.856c0-0.1-0.031-0.194-0.087-0.269l-1.406-2.012zM25.675 15.325h-2.1v-1.675h0.919l1.181 1.675zM11.294 11.944h9.594v6.638h-4.781c-0.181-0.944-1.006-1.656-2-1.656s-1.825 0.712-2 1.656h-0.813v-6.637zM14.106 20.056c-0.606 0-1.1-0.494-1.1-1.1s0.494-1.1 1.1-1.1 1.1 0.494 1.1 1.1-0.494 1.1-1.1 1.1zM23.219 20.056c-0.606 0-1.1-0.494-1.1-1.1s0.494-1.1 1.1-1.1 1.1 0.494 1.1 1.1-0.494 1.1-1.1 1.1zM25.219 18.581c-0.181-0.944-1.006-1.656-2-1.656-0.538 0-1.031 0.212-1.394 0.556v-3.831h0.806v2.144c0 0.256 0.212 0.469 0.469 0.469h2.581v2.319h-0.462z"></path>
<path d="M5.85 11.944h3.344c0.256 0 0.469-0.213 0.469-0.469s-0.213-0.469-0.469-0.469h-3.344c-0.256 0-0.469 0.213-0.469 0.469s0.213 0.469 0.469 0.469z"></path>
<path d="M9.194 12.713h-2.575c-0.256 0-0.469 0.213-0.469 0.469s0.213 0.469 0.469 0.469h2.575c0.256 0 0.469-0.213 0.469-0.469s-0.206-0.469-0.469-0.469z"></path>
<path d="M9.194 14.419h-1.625c-0.256 0-0.469 0.213-0.469 0.469s0.213 0.469 0.469 0.469h1.625c0.256 0 0.469-0.213 0.469-0.469s-0.206-0.469-0.469-0.469z"></path>
<path d="M9.194 16.125h-0.563c-0.256 0-0.469 0.212-0.469 0.469s0.213 0.469 0.469 0.469h0.563c0.256 0 0.469-0.212 0.469-0.469s-0.206-0.469-0.469-0.469z"></path>
</symbol>
<symbol id="icon-box-business-comerce-delivery-shop" viewBox="0 0 32 32">
<path d="M25.681 11.662c0-0.006 0-0.012-0.006-0.012 0-0.012-0.006-0.019-0.006-0.031 0-0.006-0.006-0.019-0.006-0.025s-0.006-0.012-0.006-0.019c-0.012-0.031-0.025-0.056-0.044-0.081 0 0 0 0 0 0l-4.063-5.969c-0.087-0.131-0.231-0.206-0.387-0.206h-10.319c-0.156 0-0.3 0.075-0.387 0.206l-4.063 5.969c0 0 0 0 0 0-0.019 0.025-0.031 0.056-0.044 0.081 0 0.006-0.006 0.012-0.006 0.019-0.006 0.006-0.006 0.019-0.006 0.025 0 0.012-0.006 0.019-0.006 0.031 0 0.006 0 0.012-0.006 0.012-0.006 0.031-0.013 0.063-0.013 0.094 0 0 0 0 0 0v14.456c0 0.256 0.213 0.469 0.469 0.469h18.444c0.256 0 0.469-0.212 0.469-0.469v-14.456c0 0 0 0 0 0-0.006-0.031-0.006-0.063-0.012-0.094zM24.331 11.287h-6.056l-0.569-5.031h3.2l3.425 5.031zM14.606 12.225h2.781v3.438l-1.119-0.787c-0.081-0.056-0.175-0.088-0.269-0.088s-0.188 0.031-0.269 0.088l-1.119 0.787v-3.438zM16.762 6.256l0.569 5.031h-2.669l0.569-5.031h1.531zM11.094 6.256h3.2l-0.569 5.031h-6.056l3.425-5.031zM24.75 25.744h-17.5v-13.519h6.425v4.338c0 0.175 0.1 0.337 0.25 0.419 0.156 0.081 0.344 0.069 0.488-0.031l1.587-1.119 1.587 1.119c0.081 0.056 0.175 0.087 0.269 0.087 0.075 0 0.15-0.019 0.219-0.050 0.156-0.081 0.25-0.244 0.25-0.419v-4.338h6.425v13.513z"></path>
<path d="M12.563 20.65h-3.325c-0.256 0-0.469 0.212-0.469 0.469s0.213 0.469 0.469 0.469h3.325c0.256 0 0.469-0.212 0.469-0.469s-0.213-0.469-0.469-0.469z"></path>
<path d="M10.9 22.619h-1.662c-0.256 0-0.469 0.212-0.469 0.469s0.213 0.469 0.469 0.469h1.662c0.256 0 0.469-0.212 0.469-0.469s-0.213-0.469-0.469-0.469z"></path>
</symbol>
<symbol id="icon-business-comerce-delivery-return-shop" viewBox="0 0 32 32">
<path d="M16.006 26.512c2.806 0 5.444-1.094 7.431-3.081 1.844-1.844 2.931-4.294 3.063-6.9 0.012-0.256-0.188-0.481-0.444-0.494s-0.481 0.188-0.494 0.444c-0.119 2.369-1.113 4.6-2.794 6.281-1.806 1.806-4.213 2.806-6.769 2.806s-4.963-0.994-6.769-2.806c-3.731-3.731-3.731-9.806 0-13.537 3.181-3.181 8.131-3.713 11.894-1.319l-1.056 1.294 3.031-0.306-0.306-3.031-1.069 1.313c-4.144-2.7-9.637-2.131-13.156 1.387-4.1 4.1-4.1 10.763 0 14.863 1.994 1.994 4.631 3.087 7.438 3.087z"></path>
<path d="M20.962 13.838c0-0.006 0-0.012-0.006-0.012 0-0.012-0.006-0.019-0.006-0.031 0-0.006-0.006-0.019-0.006-0.025s-0.006-0.012-0.006-0.019c-0.012-0.031-0.025-0.056-0.044-0.081 0 0 0 0 0 0l-1.988-2.919c-0.087-0.131-0.231-0.206-0.387-0.206h-5.037c-0.156 0-0.3 0.075-0.387 0.206l-1.988 2.912c0 0 0 0 0 0-0.019 0.025-0.031 0.056-0.044 0.081 0 0.006-0.006 0.012-0.006 0.019-0.006 0.006-0.006 0.019-0.006 0.025 0 0.012-0.006 0.019-0.006 0.031 0 0.006 0 0.012-0.006 0.012-0.006 0.031-0.012 0.063-0.012 0.094 0 0 0 0 0 0v7.056c0 0.256 0.213 0.469 0.469 0.469h9.006c0.256 0 0.469-0.212 0.469-0.469v-7.050c0 0 0 0 0 0 0-0.037 0-0.069-0.006-0.094zM13.731 11.481h4.537l1.344 1.975h-7.231l1.35-1.975zM20.031 20.519h-8.063v-6.119h8.069v6.119z"></path>
</symbol>
<symbol id="icon-telegram-app" viewBox="0 0 32 32">
<path  d="M16 2.667c-7.364 0-13.333 5.97-13.333 13.333s5.97 13.333 13.333 13.333v0c7.364 0 13.333-5.97 13.333-13.333s-5.97-13.333-13.333-13.333v0z"></path>
<path fill="#fff" style="fill: var(--color2, #fff)" d="M22.633 10l-2.497 12.751c0 0-0.107 0.583-0.83 0.583-0.384 0-0.582-0.183-0.582-0.183l-5.409-4.489-2.647-1.334-3.397-0.903c0 0-0.605-0.175-0.605-0.675 0-0.417 0.622-0.615 0.622-0.615l14.211-5.645c-0.001-0.001 0.434-0.157 0.751-0.156 0.195 0 0.417 0.083 0.417 0.333 0 0.167-0.033 0.333-0.033 0.333z"></path>
<path fill="#b0bec5" style="fill: var(--color3, #b0bec5)" d="M15.333 20.337l-2.284 2.249c0 0-0.099 0.077-0.232 0.080-0.046 0.001-0.095-0.006-0.146-0.029l0.643-3.977 2.019 1.676z"></path>
<path fill="#cfd8dc" style="fill: var(--color4, #cfd8dc)" d="M19.931 12.131c-0.113-0.147-0.321-0.173-0.467-0.062l-8.797 5.265c0 0 1.404 3.928 1.618 4.608s0.387 0.697 0.387 0.697l0.643-3.977 6.555-6.064c0.147-0.111 0.174-0.32 0.063-0.467z"></path>
</symbol>
<symbol id="icon-viber" viewBox="0 0 32 32">
<path  d="M0 0h32v32h-32v-32z"></path>
<path fill="none" stroke="#fff" style="stroke: var(--color2, #fff)" stroke-linejoin="miter" stroke-linecap="round" stroke-miterlimit="4" stroke-width="0.625" d="M16.813 11.625c0.019-0.001 0.041-0.001 0.064-0.001 1.036 0 1.875 0.839 1.875 1.875 0 0.022-0 0.045-0.001 0.067l0-0.003M16.375 9.938c0.001 0 0.003 0 0.004 0 2.209 0 4 1.791 4 4 0 0.066-0.002 0.132-0.005 0.197l0-0.009M15.813 8.313c0.042-0.001 0.091-0.002 0.141-0.002 3.348 0 6.063 2.714 6.063 6.063 0 0.155-0.006 0.308-0.017 0.459l0.001-0.020"></path>
<path fill="#fff" style="fill: var(--color2, #fff)" d="M5.938 14.5c0 4.875 0.875 5.938 2.25 7.375 0.438 0.438 2 1.188 2.375 1.188v4.313c0 0.25 0.25 0.438 0.5 0.188l3.313-3.938 1.625 0.063c9 0 10.063-3.5 10.063-9.188s-1.063-9.188-10.063-9.188c-9 0-10.063 3.5-10.063 9.188zM4.063 14.5c0-7.875 3.438-11.063 11.938-11.063s11.938 3.188 11.938 11.063-3.438 11.063-11.938 11.063c-0.625 0-1.125 0-2-0.125l-2.375 2.688c-0.438 0.5-1.75 0.688-1.75-0.813v-2.625c-0.375 0-1.25-0.375-2.438-1.125-1.188-0.813-3.375-2.75-3.375-9.063zM18 17.125q0.625-0.813 1.5-0.25l2.25 1.688q0.5 0.625-0.438 1.75t-1.75 0.938q-3.313-0.75-6.375-3.75t-3.813-6.5q0-1.25 1.563-2.125 0.813-0.563 1.375 0.313l1.563 2.188q0.375 0.75-0.438 1.375c-2.438 0.938 3.188 7 4.563 4.375z"></path>
</symbol>

<symbol id="icon-business-comerce-delivery-shop-trolley_121443" viewBox="0 0 32 32">
<path d="M6.106 7.169h2.744l1.412 4.106 0.75 2.487c0 0 0 0.006 0 0.006l0.925 3.069c0 0.006 0.006 0.012 0.006 0.019l0.569 1.881h-0.219c-1.131 0-2.050 0.919-2.050 2.050s0.919 2.050 2.050 2.050h1.019c-0.175 0.294-0.281 0.637-0.281 1 0 1.069 0.869 1.938 1.938 1.938s1.938-0.869 1.938-1.938c0-0.369-0.1-0.706-0.281-1h3.719c-0.175 0.294-0.281 0.637-0.281 1 0 1.069 0.869 1.938 1.938 1.938s1.938-0.869 1.938-1.938c0-0.369-0.1-0.706-0.281-1h0.844c0.256 0 0.469-0.212 0.469-0.469s-0.212-0.469-0.469-0.469h-12.213c-0.613 0-1.113-0.5-1.113-1.113s0.5-1.113 1.113-1.113h3.287c0 0 0 0 0 0s0 0 0 0h5.438c0 0 0 0 0 0s0 0 0 0h2.438c0.206 0 0.387-0.137 0.45-0.331l0.75-2.488c0-0.006 0-0.006 0-0.012l1.681-5.575c0.044-0.144 0.019-0.294-0.075-0.412s-0.225-0.188-0.375-0.188h-3.319c0 0 0 0-0.006 0h-4.269c0 0 0 0 0 0s0 0 0 0h-4.269c0 0-0.006 0-0.006 0h-2.981l-1.412-4.112c-0.063-0.188-0.244-0.319-0.444-0.319h-3.069c-0.256 0-0.469 0.213-0.469 0.469s0.213 0.463 0.469 0.463zM15.969 23.831c0 0.55-0.45 1-1 1s-1-0.45-1-1 0.45-1 1-1 1 0.45 1 1zM23.006 23.831c0 0.55-0.45 1-1 1s-1-0.45-1-1 0.45-1 1-1 1 0.45 1 1zM23.863 16.231h-1.794l0.413-2.137h2.025l-0.644 2.137zM21.113 16.231h-2.344v-2.137h2.762l-0.419 2.137zM18.769 18.731v-1.563h2.163l-0.3 1.563h-1.863zM15.969 18.731l-0.3-1.563h2.163v1.563h-1.863zM13.019 17.169h1.694l0.3 1.563h-1.525l-0.469-1.563zM18.769 13.156v-1.563h3.244l-0.3 1.563h-2.944zM17.831 13.156h-2.944l-0.3-1.563h3.244v1.563zM17.831 14.094v2.137h-2.344l-0.412-2.137h2.756zM14.531 16.231h-1.794l-0.644-2.137h2.025l0.412 2.137zM23.113 18.731h-1.525l0.3-1.563h1.694l-0.469 1.563zM24.794 13.156h-2.125l0.3-1.563h2.294l-0.469 1.563zM13.631 11.594l0.3 1.563h-2.125l-0.469-1.563h2.294z"></path>
</symbol>
<symbol id="icon-basket-delete" viewBox="0 0 32 32">
<path  d="M12.25 11.45h1.5v12h-1.5z"></path>
<path  d="M15.25 11.45h1.5v12h-1.5z"></path>
<path  d="M18.25 11.45h1.5v12h-1.5z"></path>
<path  d="M6.25 6.95h19.5v1.5h-19.5z"></path>
<path  d="M19.7 7.7h-1.4v-1.5c0-0.45-0.35-0.8-0.8-0.8h-3c-0.45 0-0.8 0.35-0.8 0.8v1.5h-1.4v-1.5c0-1.2 1-2.2 2.2-2.2h3c1.2 0 2.2 1 2.2 2.2v1.5z"></path>
<path  d="M20.5 27.95h-9c-1.2 0-2.25-1-2.35-2.2l-1.4-18 1.5-0.1 1.4 18c0.050 0.45 0.45 0.8 0.85 0.8h9c0.45 0 0.85-0.4 0.85-0.8l1.4-18 1.5 0.1-1.4 18c-0.1 1.25-1.15 2.2-2.35 2.2z"></path>
</symbol>
</defs>
</svg>
